<?xml version="1.0" encoding="UTF-8"?>
<svg xmlns="http://www.w3.org/2000/svg" xmlns:xlink="http://www.w3.org/1999/xlink" width="24px" height="24px" viewBox="0 0 24 24" version="1.1">
<g id="surface1">
<path style=" stroke:none;fill-rule:nonzero;fill:rgb(58.431373%,74.901961%,27.45098%);fill-opacity:1;" d="M 19.871094 4.710938 C 19.855469 4.59375 19.75 4.527344 19.664062 4.519531 C 19.578125 4.511719 17.742188 4.375 17.742188 4.375 C 17.742188 4.375 16.46875 3.109375 16.328125 2.96875 C 16.1875 2.832031 15.914062 2.875 15.808594 2.90625 C 15.792969 2.910156 15.527344 2.988281 15.09375 3.125 C 14.667969 1.898438 13.917969 0.773438 12.59375 0.773438 C 12.558594 0.773438 12.519531 0.773438 12.484375 0.777344 C 12.109375 0.28125 11.640625 0.0625 11.238281 0.0625 C 8.160156 0.0625 6.6875 3.914062 6.226562 5.871094 C 5.03125 6.242188 4.179688 6.503906 4.074219 6.539062 C 3.40625 6.746094 3.382812 6.769531 3.296875 7.398438 C 3.230469 7.875 1.484375 21.390625 1.484375 21.390625 L 15.101562 23.941406 L 22.476562 22.34375 C 22.476562 22.34375 19.886719 4.832031 19.871094 4.710938 Z M 14.339844 3.355469 L 13.1875 3.714844 C 13.191406 3.632812 13.191406 3.554688 13.191406 3.464844 C 13.191406 2.703125 13.085938 2.089844 12.914062 1.605469 C 13.597656 1.691406 14.050781 2.464844 14.339844 3.355469 Z M 12.070312 1.757812 C 12.257812 2.230469 12.382812 2.910156 12.382812 3.832031 C 12.382812 3.878906 12.382812 3.921875 12.382812 3.964844 C 11.632812 4.195312 10.816406 4.449219 10.003906 4.699219 C 10.460938 2.933594 11.320312 2.078125 12.070312 1.757812 Z M 11.15625 0.890625 C 11.289062 0.890625 11.421875 0.933594 11.550781 1.023438 C 10.5625 1.488281 9.503906 2.65625 9.058594 4.992188 L 7.175781 5.574219 C 7.699219 3.792969 8.941406 0.890625 11.15625 0.890625 Z M 11.15625 0.890625 "/>
<path style=" stroke:none;fill-rule:nonzero;fill:rgb(36.862745%,55.686275%,24.313725%);fill-opacity:1;" d="M 19.664062 4.519531 C 19.578125 4.511719 17.742188 4.375 17.742188 4.375 C 17.742188 4.375 16.46875 3.109375 16.328125 2.96875 C 16.273438 2.917969 16.203125 2.890625 16.128906 2.878906 L 15.101562 23.941406 L 22.476562 22.34375 C 22.476562 22.34375 19.886719 4.832031 19.871094 4.710938 C 19.855469 4.59375 19.75 4.527344 19.664062 4.519531 "/>
<path style=" stroke:none;fill-rule:nonzero;fill:rgb(100%,100%,100%);fill-opacity:1;" d="M 12.59375 8.597656 L 11.683594 11.300781 C 11.683594 11.300781 10.886719 10.875 9.910156 10.875 C 8.480469 10.875 8.40625 11.777344 8.40625 12.003906 C 8.40625 13.238281 11.628906 13.710938 11.628906 16.605469 C 11.628906 18.886719 10.183594 20.351562 8.234375 20.351562 C 5.898438 20.351562 4.703125 18.898438 4.703125 18.898438 L 5.328125 16.828125 C 5.328125 16.828125 6.558594 17.882812 7.59375 17.882812 C 8.273438 17.882812 8.546875 17.351562 8.546875 16.960938 C 8.546875 15.347656 5.90625 15.277344 5.90625 12.628906 C 5.90625 10.398438 7.503906 8.238281 10.734375 8.238281 C 11.980469 8.238281 12.59375 8.597656 12.59375 8.597656 "/>
</g>
</svg>
